<svg width="300" height="260" viewBox="0 0 300 260" fill="none" xmlns="http://www.w3.org/2000/svg">
<rect width="300" height="260" rx="12" fill="#292826"/>
<path d="M169 125C169 135.493 160.493 144 150 144C139.507 144 131 135.493 131 125C131 114.507 139.507 106 150 106C160.493 106 169 114.507 169 125Z" fill="#B0907A"/>
<path d="M195.678 122.291C195.886 122.273 196.053 122.355 196.182 122.536C196.326 122.716 196.413 122.974 196.442 123.309C196.492 123.882 196.4 124.388 196.165 124.827C195.779 125.551 195.236 126.136 194.536 126.583C193.852 127.028 193.008 127.295 192.004 127.383C190.474 127.517 189.247 127.166 188.323 126.332C187.397 125.481 186.866 124.275 186.729 122.713C186.633 121.613 186.775 120.573 187.155 119.592C187.533 118.595 188.105 117.782 188.869 117.153C189.649 116.523 190.557 116.162 191.593 116.072C192.517 115.991 193.283 116.205 193.89 116.714C194.495 117.207 194.839 117.924 194.921 118.864C195.017 119.964 194.702 120.947 193.974 121.814C193.262 122.663 191.977 123.402 190.121 124.03C190.568 124.73 191.245 125.04 192.154 124.961C192.807 124.903 193.328 124.705 193.716 124.366C194.12 124.026 194.569 123.472 195.064 122.706C195.235 122.451 195.439 122.312 195.678 122.291ZM191.391 118.45C190.802 118.502 190.33 118.889 189.975 119.61C189.637 120.33 189.51 121.177 189.595 122.149L189.599 122.197C190.52 121.891 191.232 121.492 191.735 120.998C192.238 120.504 192.463 119.963 192.412 119.373C192.385 119.07 192.277 118.839 192.086 118.679C191.91 118.501 191.678 118.425 191.391 118.45Z" fill="#E1D4C9"/>
<path d="M183.298 128.145C181.736 128.281 180.478 127.95 179.525 127.15C178.586 126.332 178.053 125.199 177.926 123.748C177.813 122.457 177.969 121.303 178.394 120.286C178.819 119.269 179.415 118.462 180.182 117.865C180.949 117.268 181.778 116.93 182.671 116.852C183.548 116.776 184.248 116.979 184.772 117.463C185.311 117.93 185.616 118.57 185.687 119.383C185.746 120.052 185.644 120.632 185.381 121.12C185.135 121.608 184.773 121.872 184.294 121.914C183.992 121.941 183.738 121.89 183.534 121.764C183.346 121.636 183.241 121.444 183.219 121.189C183.209 121.077 183.214 120.949 183.233 120.802C183.253 120.656 183.268 120.55 183.278 120.485C183.337 120.239 183.357 120.013 183.339 119.805C183.321 119.598 183.251 119.444 183.13 119.342C183.024 119.239 182.876 119.195 182.685 119.212C182.318 119.244 181.99 119.441 181.701 119.804C181.41 120.151 181.193 120.611 181.051 121.186C180.908 121.761 180.866 122.383 180.925 123.052C181.086 124.901 181.972 125.755 183.582 125.614C184.236 125.557 184.918 125.281 185.63 124.785C186.356 124.271 187.047 123.544 187.703 122.604C187.875 122.364 188.081 122.233 188.32 122.212C188.527 122.194 188.695 122.276 188.823 122.457C188.967 122.638 189.054 122.895 189.083 123.23C189.136 123.835 189.028 124.343 188.759 124.752C188.09 125.742 187.253 126.538 186.245 127.14C185.252 127.725 184.27 128.06 183.298 128.145Z" fill="#E1D4C9"/>
<path d="M169.549 129.347C168.943 129.4 168.485 129.119 168.174 128.504C167.879 127.887 167.671 126.878 167.548 125.475C167.367 123.403 167.489 121.409 167.916 119.492C168.019 119.018 168.221 118.663 168.521 118.428C168.837 118.175 169.289 118.023 169.879 117.971C170.198 117.944 170.424 117.964 170.559 118.032C170.693 118.101 170.77 118.247 170.79 118.47C170.812 118.725 170.743 119.309 170.582 120.223C170.478 120.874 170.399 121.443 170.346 121.93C170.292 122.416 170.264 123.013 170.261 123.72C170.667 122.303 171.159 121.136 171.738 120.218C172.316 119.3 172.9 118.631 173.489 118.21C174.095 117.787 174.66 117.553 175.186 117.507C176.223 117.416 176.786 117.889 176.876 118.925C176.895 119.132 176.867 119.641 176.793 120.45C176.721 121.099 176.692 121.503 176.706 121.662C176.755 122.22 176.979 122.482 177.377 122.447C177.824 122.408 178.367 122.007 179.007 121.244C179.196 121.019 179.402 120.897 179.625 120.877C179.832 120.859 180 120.941 180.128 121.122C180.271 121.286 180.356 121.52 180.382 121.823C180.434 122.412 180.315 122.889 180.026 123.251C179.62 123.752 179.129 124.197 178.552 124.585C177.99 124.955 177.375 125.17 176.705 125.228C175.86 125.302 175.196 125.143 174.712 124.752C174.244 124.359 173.978 123.796 173.914 123.063C173.893 122.824 173.896 122.583 173.923 122.34C173.927 122.018 173.924 121.801 173.914 121.69C173.892 121.435 173.793 121.315 173.618 121.33C173.379 121.351 173.084 121.65 172.732 122.227C172.396 122.786 172.075 123.521 171.769 124.431C171.463 125.341 171.233 126.293 171.079 127.286C170.969 128.051 170.807 128.579 170.591 128.871C170.391 129.145 170.043 129.304 169.549 129.347Z" fill="#E1D4C9"/>
<path d="M159.246 130.249C158.529 130.312 157.911 130.037 157.391 129.423C156.886 128.793 156.591 127.984 156.504 126.996C156.4 125.8 156.384 124.701 156.457 123.699C156.528 122.681 156.698 121.598 156.967 120.45C157.085 119.958 157.278 119.596 157.547 119.364C157.816 119.131 158.261 118.988 158.883 118.934C159.233 118.903 159.477 118.938 159.614 119.038C159.768 119.137 159.854 119.298 159.874 119.521C159.885 119.649 159.835 120.087 159.724 120.835C159.616 121.439 159.535 121.984 159.481 122.471C159.309 124.172 159.247 125.302 159.296 125.86C159.325 126.195 159.386 126.43 159.478 126.567C159.569 126.687 159.702 126.74 159.877 126.724C160.116 126.704 160.39 126.439 160.699 125.93C161.024 125.42 161.343 124.661 161.657 123.654C161.986 122.645 162.28 121.415 162.538 119.963C162.624 119.474 162.785 119.114 163.022 118.885C163.275 118.654 163.664 118.515 164.19 118.469C164.557 118.437 164.816 118.463 164.968 118.546C165.118 118.613 165.204 118.766 165.225 119.005C165.26 119.404 165.156 120.513 164.914 122.333C164.646 124.412 164.533 125.691 164.575 126.169C164.601 126.472 164.686 126.705 164.829 126.869C164.97 127.018 165.145 127.083 165.352 127.065C165.671 127.037 166.028 126.813 166.425 126.393C166.837 125.955 167.371 125.266 168.027 124.325C168.199 124.085 168.404 123.955 168.644 123.934C168.851 123.916 169.018 123.997 169.147 124.179C169.291 124.359 169.378 124.616 169.407 124.951C169.463 125.589 169.355 126.096 169.083 126.473C168.471 127.378 167.791 128.136 167.041 128.748C166.307 129.358 165.439 129.707 164.434 129.795C163.669 129.862 163.078 129.617 162.659 129.059C162.257 128.5 162.009 127.686 161.916 126.618C161.74 127.726 161.407 128.598 160.916 129.236C160.424 129.857 159.868 130.195 159.246 130.249Z" fill="#E1D4C9"/>
<path d="M157.561 122.88C157.768 122.862 157.936 122.951 158.066 123.149C158.196 123.346 158.274 123.604 158.302 123.923C158.369 124.688 158.178 125.163 157.728 125.346C156.801 125.765 155.766 126.048 154.622 126.196C154.437 127.562 153.933 128.69 153.112 129.581C152.289 130.456 151.312 130.943 150.18 131.042C149.224 131.126 148.382 130.966 147.657 130.564C146.947 130.16 146.383 129.591 145.965 128.857C145.548 128.123 145.3 127.309 145.222 126.417C145.116 125.205 145.253 124.109 145.633 123.128C146.011 122.131 146.584 121.334 147.351 120.737C148.116 120.124 148.993 119.775 149.982 119.688C151.193 119.582 152.202 119.919 153.009 120.7C153.831 121.463 154.359 122.453 154.594 123.669C155.339 123.556 156.218 123.318 157.23 122.957C157.355 122.914 157.465 122.888 157.561 122.88ZM150.149 128.491C150.659 128.446 151.08 128.201 151.41 127.754C151.756 127.306 151.959 126.686 152.018 125.894C151.495 125.603 151.074 125.198 150.756 124.68C150.453 124.16 150.275 123.597 150.222 122.992C150.2 122.737 150.202 122.48 150.227 122.22L150.108 122.231C149.47 122.287 148.963 122.644 148.587 123.303C148.226 123.945 148.094 124.824 148.192 125.94C148.268 126.817 148.494 127.471 148.869 127.904C149.261 128.336 149.687 128.531 150.149 128.491Z" fill="#E1D4C9"/>
<path d="M140.31 132.436C139.481 132.508 138.827 132.373 138.347 132.029C137.884 131.684 137.631 131.273 137.589 130.795C137.553 130.38 137.673 130.008 137.949 129.679C138.225 129.35 138.658 129.159 139.248 129.107C139.455 129.089 139.697 129.092 139.972 129.116C140.261 129.123 140.479 129.128 140.624 129.132C140.571 128.719 140.442 128.337 140.234 127.985C140.043 127.633 139.805 127.3 139.52 126.988C139.235 126.659 138.969 126.377 138.724 126.142C138.312 127.126 137.886 127.95 137.446 128.615C137.023 129.278 136.548 129.914 136.023 130.522C135.761 130.834 135.471 131.004 135.152 131.032C134.897 131.054 134.682 130.985 134.508 130.823C134.332 130.646 134.232 130.422 134.208 130.151C134.18 129.832 134.266 129.527 134.465 129.237L134.743 128.827C135.524 127.667 136.108 126.716 136.493 125.976C136.723 125.49 136.988 124.848 137.288 124.051C137.586 123.238 137.875 122.402 138.153 121.542C138.394 120.814 138.993 120.409 139.949 120.325C140.396 120.286 140.71 120.299 140.892 120.363C141.075 120.427 141.173 120.547 141.189 120.722C141.197 120.818 141.179 120.972 141.133 121.185C141.087 121.398 141.018 121.613 140.924 121.83C140.688 122.429 140.587 122.927 140.622 123.326C140.642 123.565 140.745 123.821 140.93 124.094C141.13 124.365 141.424 124.701 141.813 125.101C142.381 125.726 142.814 126.266 143.111 126.722C143.422 127.16 143.602 127.658 143.651 128.216C143.665 128.376 143.669 128.6 143.662 128.89C144.417 128.519 145.263 127.634 146.2 126.235C146.372 125.995 146.577 125.864 146.817 125.843C147.024 125.825 147.191 125.907 147.32 126.088C147.464 126.269 147.551 126.526 147.58 126.861C147.633 127.466 147.525 127.974 147.256 128.383C146.545 129.441 145.839 130.185 145.138 130.616C144.451 131.029 143.576 131.299 142.511 131.424C141.92 132.022 141.187 132.359 140.31 132.436Z" fill="#E1D4C9"/>
<path d="M136.616 126.736C136.823 126.718 136.991 126.799 137.119 126.981C137.264 127.161 137.35 127.418 137.38 127.753C137.435 128.391 137.327 128.898 137.055 129.275C136.528 130.044 135.749 130.779 134.718 131.479C133.703 132.178 132.582 132.581 131.355 132.689C129.681 132.835 128.343 132.495 127.339 131.667C126.335 130.839 125.764 129.637 125.626 128.059C125.529 126.959 125.671 125.918 126.051 124.938C126.43 123.941 127.001 123.128 127.765 122.499C128.545 121.869 129.453 121.508 130.489 121.417C131.414 121.337 132.179 121.551 132.786 122.06C133.391 122.553 133.735 123.27 133.817 124.21C133.914 125.31 133.598 126.293 132.871 127.16C132.158 128.009 130.882 128.747 129.041 129.374C129.504 130.072 130.293 130.373 131.409 130.275C132.126 130.212 132.917 129.894 133.783 129.32C134.662 128.73 135.402 127.998 136 127.127C136.172 126.887 136.377 126.757 136.616 126.736ZM130.288 123.796C129.698 123.848 129.226 124.234 128.872 124.956C128.533 125.676 128.406 126.522 128.491 127.495L128.496 127.542C129.416 127.237 130.128 126.837 130.631 126.344C131.134 125.85 131.36 125.308 131.308 124.719C131.282 124.416 131.173 124.184 130.982 124.024C130.806 123.847 130.575 123.771 130.288 123.796Z" fill="#E1D4C9"/>
<path d="M127.691 127.517C127.898 127.498 128.066 127.58 128.194 127.762C128.338 127.942 128.425 128.199 128.454 128.534C128.509 129.156 128.4 129.663 128.13 130.056C127.445 131.047 126.735 131.832 125.999 132.411C125.261 132.973 124.358 133.301 123.29 133.395C122.254 133.485 121.345 133.284 120.563 132.79C119.797 132.295 119.028 131.398 118.256 130.101C117.635 129.063 117.151 128.302 116.804 127.819C116.455 127.319 116.119 126.971 115.797 126.774C115.49 126.576 115.12 126.472 114.685 126.462C114.651 126.802 114.559 127.87 114.411 129.666C114.354 130.474 114.316 130.967 114.3 131.146C114.226 132.132 113.972 132.909 113.54 133.477C113.107 134.028 112.404 134.347 111.431 134.432C110.364 134.525 109.388 134.298 108.505 133.748C107.636 133.182 106.93 132.36 106.386 131.284C105.841 130.191 105.505 128.928 105.38 127.493C105.145 124.815 105.405 122.464 106.16 120.438C106.93 118.411 108.107 116.815 109.692 115.648C111.291 114.464 113.19 113.776 115.389 113.584C116.92 113.45 118.223 113.569 119.299 113.94C120.376 114.312 121.197 114.883 121.762 115.652C122.343 116.42 122.678 117.315 122.768 118.335C122.846 119.227 122.707 120.123 122.352 121.021C122.012 121.902 121.448 122.706 120.66 123.434C119.872 124.161 118.887 124.737 117.703 125.162C118.487 125.302 119.106 125.586 119.561 126.011C120.015 126.437 120.489 127.079 120.982 127.935C121.512 128.852 122.011 129.515 122.481 129.924C122.966 130.331 123.496 130.51 124.069 130.459C124.579 130.415 125.051 130.205 125.484 129.83C125.915 129.439 126.446 128.798 127.074 127.908C127.246 127.668 127.452 127.538 127.691 127.517ZM111.384 126.727C110.842 126.774 110.456 126.68 110.227 126.443C110.013 126.204 109.892 125.926 109.864 125.607C109.831 125.224 109.924 124.911 110.144 124.667C110.379 124.422 110.656 124.285 110.975 124.257L111.573 124.205C111.691 122.62 111.812 121.253 111.936 120.101C112.053 119.047 112.677 118.471 113.809 118.372C114.717 118.292 115.207 118.659 115.278 119.472C115.294 119.647 115.297 119.783 115.29 119.88L114.92 123.912C115.776 123.789 116.539 123.513 117.209 123.085C117.894 122.656 118.415 122.096 118.772 121.407C119.145 120.716 119.296 119.956 119.223 119.127C119.135 118.123 118.724 117.364 117.988 116.85C117.252 116.336 116.223 116.137 114.9 116.253C113.338 116.389 112.002 116.9 110.89 117.784C109.794 118.651 108.986 119.878 108.466 121.465C107.945 123.037 107.78 124.914 107.971 127.098C108.06 128.118 108.241 128.985 108.512 129.7C108.783 130.416 109.086 130.943 109.421 131.283C109.756 131.623 110.059 131.782 110.33 131.758C110.537 131.74 110.696 131.621 110.805 131.403C110.93 131.183 111.013 130.839 111.052 130.37L111.384 126.727Z" fill="#E1D4C9"/>
<path d="M178.402 154V148.182H182.186V149.065H179.456V150.645H181.99V151.528H179.456V153.117H182.209V154H178.402Z" fill="#E1D4C9"/>
<path d="M175.97 149.781C175.943 149.533 175.832 149.34 175.635 149.202C175.44 149.063 175.186 148.994 174.873 148.994C174.654 148.994 174.465 149.027 174.308 149.094C174.151 149.16 174.03 149.25 173.947 149.364C173.864 149.477 173.821 149.607 173.819 149.753C173.819 149.874 173.847 149.979 173.902 150.068C173.958 150.157 174.035 150.233 174.132 150.295C174.228 150.356 174.335 150.407 174.453 150.449C174.57 150.491 174.689 150.526 174.808 150.554L175.353 150.69C175.573 150.741 175.784 150.811 175.987 150.898C176.191 150.985 176.374 151.095 176.535 151.227C176.698 151.36 176.827 151.52 176.922 151.707C177.016 151.895 177.064 152.115 177.064 152.366C177.064 152.707 176.976 153.008 176.802 153.267C176.628 153.525 176.376 153.726 176.047 153.872C175.719 154.016 175.322 154.088 174.856 154.088C174.404 154.088 174.011 154.018 173.677 153.878C173.346 153.738 173.086 153.533 172.899 153.264C172.713 152.995 172.613 152.668 172.598 152.281H173.635C173.65 152.484 173.712 152.652 173.822 152.787C173.932 152.921 174.075 153.022 174.251 153.088C174.429 153.154 174.628 153.188 174.848 153.188C175.077 153.188 175.278 153.153 175.45 153.085C175.624 153.015 175.761 152.919 175.859 152.795C175.958 152.67 176.008 152.525 176.01 152.358C176.008 152.206 175.963 152.081 175.876 151.983C175.789 151.883 175.667 151.799 175.51 151.733C175.354 151.665 175.172 151.604 174.964 151.551L174.302 151.381C173.823 151.258 173.444 151.071 173.166 150.821C172.889 150.569 172.751 150.235 172.751 149.818C172.751 149.475 172.844 149.175 173.029 148.918C173.217 148.66 173.472 148.46 173.794 148.318C174.116 148.174 174.48 148.102 174.887 148.102C175.3 148.102 175.662 148.174 175.973 148.318C176.285 148.46 176.53 148.658 176.708 148.912C176.886 149.164 176.978 149.454 176.984 149.781H175.97Z" fill="#E1D4C9"/>
<path d="M170.209 148.182H171.263V151.983C171.263 152.4 171.164 152.766 170.967 153.082C170.772 153.399 170.497 153.646 170.143 153.824C169.789 154 169.375 154.088 168.902 154.088C168.426 154.088 168.012 154 167.657 153.824C167.303 153.646 167.029 153.399 166.834 153.082C166.639 152.766 166.541 152.4 166.541 151.983V148.182H167.595V151.895C167.595 152.137 167.648 152.353 167.754 152.543C167.862 152.732 168.014 152.881 168.209 152.989C168.404 153.095 168.635 153.148 168.902 153.148C169.169 153.148 169.4 153.095 169.595 152.989C169.792 152.881 169.943 152.732 170.05 152.543C170.156 152.353 170.209 152.137 170.209 151.895V148.182Z" fill="#E1D4C9"/>
<path d="M165.143 151.091C165.143 151.718 165.026 152.255 164.791 152.702C164.558 153.147 164.24 153.488 163.837 153.724C163.435 153.961 162.98 154.08 162.47 154.08C161.961 154.08 161.504 153.961 161.101 153.724C160.699 153.486 160.381 153.144 160.146 152.699C159.913 152.252 159.797 151.716 159.797 151.091C159.797 150.464 159.913 149.928 160.146 149.483C160.381 149.036 160.699 148.694 161.101 148.457C161.504 148.221 161.961 148.102 162.47 148.102C162.98 148.102 163.435 148.221 163.837 148.457C164.24 148.694 164.558 149.036 164.791 149.483C165.026 149.928 165.143 150.464 165.143 151.091ZM164.084 151.091C164.084 150.65 164.015 150.277 163.876 149.974C163.74 149.67 163.551 149.439 163.308 149.284C163.066 149.127 162.786 149.048 162.47 149.048C162.154 149.048 161.875 149.127 161.632 149.284C161.39 149.439 161.199 149.67 161.061 149.974C160.925 150.277 160.857 150.65 160.857 151.091C160.857 151.532 160.925 151.905 161.061 152.21C161.199 152.513 161.39 152.743 161.632 152.901C161.875 153.056 162.154 153.134 162.47 153.134C162.786 153.134 163.066 153.056 163.308 152.901C163.551 152.743 163.74 152.513 163.876 152.21C164.015 151.905 164.084 151.532 164.084 151.091Z" fill="#E1D4C9"/>
<path d="M153.592 154V148.182H154.646V150.645H157.342V148.182H158.399V154H157.342V151.528H154.646V154H153.592Z" fill="#E1D4C9"/>
<path d="M145.949 154V148.182H149.733V149.065H147.003V150.645H149.537V151.528H147.003V153.117H149.756V154H145.949Z" fill="#E1D4C9"/>
<path d="M140.689 154V148.182H144.474V149.065H141.743V150.645H144.278V151.528H141.743V153.117H144.496V154H140.689Z" fill="#E1D4C9"/>
<path d="M135.602 154V148.182H139.329V149.065H136.656V150.645H139.073V151.528H136.656V154H135.602Z" fill="#E1D4C9"/>
<path d="M130.514 154V148.182H134.241V149.065H131.568V150.645H133.985V151.528H131.568V154H130.514Z" fill="#E1D4C9"/>
<path d="M129.118 151.091C129.118 151.718 129.001 152.255 128.766 152.702C128.533 153.147 128.215 153.488 127.811 153.724C127.41 153.961 126.954 154.08 126.445 154.08C125.935 154.08 125.479 153.961 125.075 153.724C124.674 153.486 124.356 153.144 124.121 152.699C123.888 152.252 123.771 151.716 123.771 151.091C123.771 150.464 123.888 149.928 124.121 149.483C124.356 149.036 124.674 148.694 125.075 148.457C125.479 148.221 125.935 148.102 126.445 148.102C126.954 148.102 127.41 148.221 127.811 148.457C128.215 148.694 128.533 149.036 128.766 149.483C129.001 149.928 129.118 150.464 129.118 151.091ZM128.058 151.091C128.058 150.65 127.989 150.277 127.851 149.974C127.715 149.67 127.525 149.439 127.283 149.284C127.04 149.127 126.761 149.048 126.445 149.048C126.128 149.048 125.849 149.127 125.607 149.284C125.364 149.439 125.174 149.67 125.036 149.974C124.899 150.277 124.831 150.65 124.831 151.091C124.831 151.532 124.899 151.905 125.036 152.21C125.174 152.513 125.364 152.743 125.607 152.901C125.849 153.056 126.128 153.134 126.445 153.134C126.761 153.134 127.04 153.056 127.283 152.901C127.525 152.743 127.715 152.513 127.851 152.21C127.989 151.905 128.058 151.532 128.058 151.091Z" fill="#E1D4C9"/>
<path d="M122.554 150.145H121.491C121.461 149.971 121.405 149.816 121.324 149.682C121.242 149.545 121.141 149.43 121.02 149.335C120.898 149.241 120.76 149.17 120.605 149.122C120.451 149.073 120.286 149.048 120.108 149.048C119.791 149.048 119.511 149.128 119.267 149.287C119.022 149.444 118.831 149.675 118.693 149.98C118.555 150.283 118.485 150.653 118.485 151.091C118.485 151.536 118.555 151.911 118.693 152.216C118.833 152.519 119.024 152.748 119.267 152.903C119.511 153.057 119.79 153.134 120.105 153.134C120.279 153.134 120.442 153.111 120.593 153.065C120.747 153.018 120.884 152.949 121.005 152.858C121.128 152.767 121.232 152.655 121.315 152.523C121.4 152.39 121.459 152.239 121.491 152.068L122.554 152.074C122.514 152.35 122.428 152.61 122.295 152.852C122.164 153.095 121.993 153.309 121.781 153.494C121.569 153.678 121.321 153.822 121.037 153.926C120.752 154.028 120.437 154.08 120.091 154.08C119.579 154.08 119.123 153.961 118.721 153.724C118.32 153.488 118.003 153.146 117.772 152.699C117.541 152.252 117.426 151.716 117.426 151.091C117.426 150.464 117.542 149.928 117.775 149.483C118.008 149.036 118.325 148.694 118.727 148.457C119.128 148.221 119.583 148.102 120.091 148.102C120.414 148.102 120.716 148.148 120.994 148.239C121.272 148.33 121.52 148.463 121.738 148.639C121.956 148.813 122.135 149.027 122.275 149.281C122.417 149.533 122.51 149.821 122.554 150.145Z" fill="#E1D4C9"/>
</svg>
